Coordinates
datacolumns 6
datarows 185
range 0 1.84
inDegrees=yes
Units are S.I. units (second, meters, Newtons, ...)
If the header above contains a line with 'inDegrees', this indicates whether rotational values are in degrees (yes) or radians (no).
endheader
time	foot_tx	hip_flexion_r	knee_angle_r	ankle_angle_r	lumbar
0	0.17481949	56.08484525	-72.31296914	5.27642689	-21.53757663
0.01	0.1747891	56.09914262	-72.30264197	5.27041019	-21.63931454
0.02	0.17475465	56.1154168	-72.29159163	5.26428193	-21.74905114
0.03	0.17471251	56.13331674	-72.28063743	5.25895086	-21.86693075
0.04	0.17466897	56.15530567	-72.26928134	5.25370545	-21.99021898
0.05	0.1746223	56.17986263	-72.25672394	5.24840738	-22.12088729
0.06	0.17457583	56.20863645	-72.24289937	5.24279158	-22.2573092
0.07	0.17452822	56.24235999	-72.22830303	5.23729977	-22.39886707
0.08	0.17448208	56.2821462	-72.21300618	5.23184855	-22.54473013
0.09	0.17443944	56.32792208	-72.19594539	5.22585844	-22.69555988
0.1	0.17439766	56.38142347	-72.17858038	5.22021704	-22.84977733
0.11	0.1743568	56.44237173	-72.16134831	5.2153345	-23.00841997
0.12	0.17431911	56.51110468	-72.14298914	5.21035762	-23.17227546
0.13	0.17428238	56.5901463	-72.12490026	5.20588617	-23.33932126
0.14	0.17424585	56.67901824	-72.10656352	5.20175574	-23.51117617
0.15	0.17420864	56.77953036	-72.08825766	5.1979281	-23.68669454
0.16	0.17417583	56.92307666	-72.07074095	5.19165291	-23.83239063
0.17	0.17412832	57.01758175	-72.05221518	5.19166365	-24.04937341
0.18	0.17409028	57.18066116	-72.03513438	5.18738921	-24.20947666
0.19	0.1740426	57.30497626	-72.01680861	5.18848957	-24.4305018
0.2	0.17400367	57.48785139	-71.99984669	5.18663143	-24.60647592
0.21	0.17395848	57.63900761	-71.98105585	5.18932011	-24.83720508
0.22	0.17392452	57.84279903	-71.96397565	5.18975449	-25.03000386
0.23	0.17389242	58.05318646	-71.94557991	5.19117553	-25.23707337
0.24	0.17385422	58.2315317	-71.92598545	5.1977533	-25.5002699
0.25	0.17382417	58.4682432	-71.90791385	5.20191154	-25.72087191
0.26	0.17379426	58.71269067	-71.88840958	5.20729784	-25.95489243
0.27	0.17375625	58.93203143	-71.86734704	5.21757413	-26.23764266
0.28	0.17372218	59.20126909	-71.84700133	5.22653417	-26.48664224
0.29	0.17368004	59.47733794	-71.82422812	5.23760587	-26.74957173
0.3	0.17362606	59.7223862	-71.79928641	5.25465498	-27.06712773
0.31	0.17357745	60.02204333	-71.77504452	5.27034073	-27.3451463
0.32	0.17352116	60.3285841	-71.74739146	5.28777313	-27.63783971
0.33	0.17345808	60.61026831	-71.718063	5.31031146	-27.9797127
0.34	0.17340089	60.94901411	-71.68857648	5.33001074	-28.28244378
0.35	0.17334205	61.30558423	-71.6576632	5.34997537	-28.589953
0.36	0.17328115	61.74294901	-71.6304797	5.36742166	-28.83119742
0.37	0.17321767	62.19626876	-71.6024085	5.38637875	-29.07580806
0.38	0.17315122	62.68035322	-71.57381789	5.40712464	-29.30382424
0.39	0.17307629	63.18630403	-71.54569424	5.43255981	-29.52163385
0.4	0.17299887	63.70614621	-71.51585284	5.4629483	-29.73566212
0.41	0.17291792	64.23194395	-71.48389251	5.50002685	-29.95223376
0.42	0.17283693	64.75926977	-71.44813444	5.54380421	-30.17487327
0.43	0.17275456	65.28509986	-71.4100028	5.59593076	-30.4060431
0.44	0.17267946	65.81558959	-71.36635657	5.65346645	-30.639262
0.45	0.17261278	66.35193671	-71.31714643	5.71637148	-30.87243561
0.46	0.1725567	66.89526914	-71.2615878	5.78421032	-31.10302693
0.47	0.17251261	67.44645076	-71.19883431	5.85667847	-31.3284149
0.48	0.17248443	68.00734847	-71.12849655	5.9334225	-31.54429037
0.49	0.17247467	68.57549552	-71.04952535	6.01427142	-31.75134338
0.5	0.17248392	69.15494047	-70.96123393	6.09883682	-31.94260017
0.51	0.17251447	69.74332439	-70.86288952	6.1872628	-32.11771061
0.52	0.172568	70.33956353	-70.75428622	6.2799484	-32.27463156
0.53	0.17264224	70.94259741	-70.63489312	6.37703869	-32.41227683
0.54	0.17273704	71.5523095	-70.5044186	6.4783469	-32.52904926
0.55	0.17284541	72.17247472	-70.36318363	6.58389321	-32.61962287
0.56	0.1729629	72.80422211	-70.21148181	6.69367148	-32.68188779
0.57	0.17308885	73.44747376	-70.04857444	6.80695844	-32.7151458
0.58	0.17320852	74.09816085	-69.87861847	6.9269244	-32.72243524
0.59	0.17332444	74.75503061	-69.69968776	7.05203007	-32.7040036
0.6	0.17343783	75.41391134	-69.51199603	7.1822046	-32.66240201
0.61	0.17355218	76.07245827	-69.31412087	7.31623243	-32.59775414
0.62	0.17365796	76.71956463	-69.11070095	7.45759031	-32.51924056
0.63	0.17376183	77.35397797	-68.89860878	7.60367506	-32.42516398
0.64	0.1738566	77.9686613	-68.67977148	7.75587293	-32.32001068
0.65	0.17395316	78.56689083	-68.44864964	7.90937897	-32.19672961
0.66	0.17403443	79.13689928	-68.21229058	8.06878472	-32.06598368
0.67	0.17410304	79.68098055	-67.96721996	8.23054149	-31.92222958
0.68	0.17415609	80.1918961	-67.71645774	8.39554374	-31.77193727
0.69	0.17419338	80.66847221	-67.46224505	8.56350508	-31.61503479
0.7	0.17421617	81.10626936	-67.20706919	8.73460342	-31.45538114
0.71	0.17422714	81.50272585	-66.95310749	8.9087183	-31.29481843
0.72	0.17423064	81.85939947	-66.70166235	9.08511776	-31.1298409
0.73	0.17423172	82.16837075	-66.4533102	9.26347662	-30.96912361
0.74	0.17423166	82.43374947	-66.20801447	9.44285727	-30.80504917
0.75	0.17423388	82.65116644	-65.96381654	9.62177274	-30.64139123
0.76	0.17423984	82.81880488	-65.71865769	9.79894832	-30.47863572
0.77	0.17424961	82.93720329	-65.46994001	9.97293423	-30.31503587
0.78	0.17427143	83.00251149	-65.21368815	10.14167547	-30.15425927
0.79	0.17430032	83.0147648	-64.9488823	10.30540647	-29.99406485
0.8	0.1743367	82.97717524	-64.6719607	10.46225671	-29.831307
0.81	0.17438165	82.88943302	-64.38035531	10.61141727	-29.66491921
0.82	0.17443372	82.73342757	-64.07098786	10.75332564	-29.51650205
0.83	0.17449496	82.5786843	-63.73973935	10.88058232	-29.30281376
0.84	0.17455984	82.35438009	-63.38405121	10.99808648	-29.10942844
0.85	0.17462493	82.10016387	-62.99949526	11.10071834	-28.88993747
0.86	0.17467996	81.81576905	-62.58537704	11.18916324	-28.64636077
0.87	0.17473614	81.50177107	-62.13623826	11.25959119	-28.3801838
0.88	0.17479034	81.15785985	-61.65060959	11.3115084	-28.09449853
0.89	0.17484138	80.78416625	-61.12765663	11.34430537	-27.79156679
0.9	0.17488367	80.38116788	-60.56861435	11.35901664	-27.47389268
0.91	0.17493079	79.94802083	-59.97098314	11.35304494	-27.14571614
0.92	0.17496625	79.43249162	-59.33793343	11.33304049	-26.87265317
0.93	0.17500516	78.91499036	-58.66992582	11.29199373	-26.56047523
0.94	0.17505037	78.36496994	-57.96537457	11.23120563	-26.24857287
0.95	0.17509362	77.78379922	-57.23303179	11.15580536	-25.9371892
0.96	0.17513598	77.17183301	-56.47193953	11.06506609	-25.62722006
0.97	0.17517755	76.52712245	-55.68861477	10.96248909	-25.32222623
0.98	0.17522013	75.85254021	-54.88433636	10.84832843	-25.01999721
0.99	0.17526287	75.1512761	-54.06338564	10.7246104	-24.71776995
1	0.17530521	74.42333406	-53.22748314	10.59225277	-24.41636111
1.01	0.17534462	73.66831309	-52.38051621	10.4535596	-24.11735184
1.02	0.17539482	72.89105699	-51.52357266	10.3079063	-23.81486012
1.03	0.17544866	72.0891045	-50.66206306	10.15909303	-23.51345889
1.04	0.17551373	71.2645751	-49.79884456	10.00815866	-23.21157128
1.05	0.17558668	70.4144177	-48.93834634	9.85825161	-22.91322029
1.06	0.17567868	69.54614062	-48.08100103	9.70833609	-22.61084977
1.07	0.17579112	68.66214347	-47.22817451	9.55898323	-22.30239489
1.08	0.17591417	67.757914	-46.38324055	9.41325258	-21.9940804
1.09	0.17605187	66.84062512	-45.54552654	9.26992904	-21.67755236
1.1	0.17620002	65.90932016	-44.71497377	9.12932251	-21.35471021
1.11	0.17635717	64.96708632	-43.89040685	8.99064044	-21.02201169
1.12	0.1765215	64.01388074	-43.07044254	8.85333868	-20.67949025
1.13	0.17669344	63.05383344	-42.25279619	8.7160026	-20.32199627
1.14	0.17687414	62.08927042	-41.43551473	8.57765049	-19.94647987
1.15	0.1770631	61.11517865	-40.61760233	8.43871587	-19.55812996
1.16	0.17726138	60.13377157	-39.79723645	8.2984324	-19.15373189
1.17	0.17746906	59.14207609	-38.97335956	8.15690929	-18.73624461
1.18	0.17768238	58.13696771	-38.14502498	8.01444383	-18.30940779
1.19	0.17790129	57.121032	-37.31064621	7.87010194	-17.87008822
1.2	0.17811939	56.08809599	-36.47061523	7.72500698	-17.42659457
1.21	0.17833138	55.03478909	-35.62409727	7.57945034	-16.98301131
1.22	0.17852706	53.95526604	-34.7700777	7.434223	-16.54513328
1.23	0.17870869	52.84588063	-33.90778118	7.28889357	-16.12005691
1.24	0.1788712	51.71246369	-33.03793979	7.14406569	-15.69687345
1.25	0.17902312	50.5509844	-32.16012387	6.99854102	-15.28664074
1.26	0.17916544	49.37184992	-31.27368639	6.85116379	-14.87685447
1.27	0.17930075	48.17344094	-30.38095515	6.70302838	-14.47121652
1.28	0.1794332	46.95526293	-29.48385995	6.5549173	-14.07205997
1.29	0.17956033	45.7257493	-28.58194526	6.40638586	-13.66949186
1.3	0.17968578	44.48573378	-27.67724944	6.25815535	-13.26440504
1.31	0.17981209	43.23452996	-26.77225341	6.11112785	-12.86062944
1.32	0.17993758	41.97785226	-25.86885143	5.96561605	-12.45438955
1.33	0.18006429	40.71995245	-24.96897959	5.82154133	-12.04526992
1.34	0.18018538	39.47168868	-24.07595912	5.67984983	-11.623767
1.35	0.18030464	38.24004296	-23.19215289	5.54012426	-11.189986
1.36	0.18040813	37.026718	-22.32421276	5.40659791	-10.74279921
1.37	0.18051084	35.84249994	-21.47012797	5.27548879	-10.27913038
1.38	0.18060581	34.68788405	-20.63631828	5.15042922	-9.80080472
1.39	0.18069656	33.56557652	-19.8249619	5.03143887	-9.3123573
1.4	0.1807856	32.47923456	-19.03834623	4.91887449	-8.81414456
1.41	0.18086435	31.43000974	-18.2765714	4.81338285	-8.30514615
1.42	0.18093999	30.41728989	-17.54067789	4.71432993	-7.79188519
1.43	0.18101048	29.43927662	-16.83057304	4.62162898	-7.27862724
1.44	0.18107317	28.49580134	-16.14562424	4.53485195	-6.76764798
1.45	0.18112858	27.58607087	-15.48551706	4.45349968	-6.26238212
1.46	0.18117792	26.71141193	-14.85048294	4.37724548	-5.76346148
1.47	0.18122109	25.87114895	-14.24103259	4.30625589	-5.2731099
1.48	0.18125787	25.06440001	-13.65947914	4.24158107	-4.794695
1.49	0.18129421	24.29537982	-13.10126833	4.18057978	-4.32069986
1.5	0.18132599	23.55897193	-12.57166713	4.12620354	-3.8607686
1.51	0.18135449	22.85653689	-12.06914403	4.07775325	-3.41135328
1.52	0.18137764	22.18675687	-11.59215713	4.03506461	-2.97143821
1.53	0.18139947	21.54792656	-11.14020389	3.99762804	-2.54370544
1.54	0.18141871	20.93712661	-10.71185634	3.96530645	-2.12935193
1.55	0.18143531	20.35162318	-10.30585038	3.93777169	-1.73041924
1.56	0.18144884	19.78953586	-9.92061599	3.91439927	-1.34817619
1.57	0.18145789	19.24989315	-9.55395162	3.89407228	-0.98328685
1.58	0.18145303	18.72902823	-9.20574831	3.87758422	-0.63808381
1.59	0.18143258	18.23066176	-8.87200477	3.86232938	-0.30816198
1.6	0.18138712	17.75388163	-8.55106132	3.84798531	0.00741378
1.61	0.18131649	17.30314207	-8.24112983	3.83273997	0.31194468
1.62	0.18121315	16.87594804	-7.94240712	3.81744361	0.60508676
1.63	0.18108869	16.47673009	-7.65229426	3.79957231	0.89050516
1.64	0.18094035	16.10053898	-7.37183905	3.78083107	1.16627499
1.65	0.1807789	15.74575912	-7.09841765	3.76008597	1.43388965
1.66	0.18060717	15.41125655	-6.83501756	3.73911938	1.69218626
1.67	0.18042614	15.09064955	-6.57715766	3.7170266	1.94188171
1.68	0.18024291	14.78605547	-6.32644551	3.69424422	2.18469921
1.69	0.18005101	14.48795462	-6.0776696	3.67014611	2.41852676
1.7	0.17985265	14.19936639	-5.83345015	3.64561429	2.64495541
1.71	0.17965397	13.94387584	-5.59437631	3.61932994	2.89292125
1.72	0.17944495	13.63850561	-5.35068513	3.5923923	3.07221857
1.73	0.17922782	13.36495281	-5.11342093	3.56496943	3.27257727
1.74	0.17900874	13.09659541	-4.88181169	3.5374385	3.46014538
1.75	0.1787777	12.83448261	-4.65725583	3.51071046	3.6341296
1.76	0.17854735	12.58018583	-4.43854341	3.48342951	3.79643545
1.77	0.17832043	12.33579992	-4.22927508	3.45674614	3.94638158
1.78	0.17809622	12.10377461	-4.02895212	3.43000458	4.08474422
1.79	0.17787954	11.88685764	-3.83822611	3.40294929	4.21359064
1.8	0.1776738	11.68622326	-3.65904727	3.37618254	4.33279401
1.81	0.17748055	11.50473176	-3.49351713	3.35053502	4.44401044
1.82	0.17730616	11.36785249	-3.34795607	3.32738243	4.57365492
1.83	0.17715087	11.20246859	-3.21283511	3.30663831	4.64241072
1.84	0.17702096	11.09815382	-3.1015976	3.28927159	4.7474495
